<?xml version="1.0" encoding="UTF-8" standalone="no"?>
<!DOCTYPE svg PUBLIC "-//W3C//DTD SVG 1.1//EN" "http://www.w3.org/Graphics/SVG/1.1/DTD/svg11.dtd">
<svg width="360" height="360" viewBox="0 0 360 360" version="1.1" xmlns="http://www.w3.org/2000/svg">
<rect x="0" y="0" width="360" height="360" style="fill:white;"/>
<circle cx="180.0" cy="180.0" r="22.49" fill="rgb(135,73,107)" />
<circle cx="180.0" cy="180.0" r="4.8" fill="rgb(202,7,31)" />
<circle cx="180.0" cy="180.0" r="4.5" fill="rgb(88,213,197)" />
<circle cx="180.0" cy="180.0" r="4.09" fill="rgb(50,61,225)" />
<circle cx="180.0" cy="180.0" r="4.0" fill="rgb(132,254,225)" />
<circle cx="180.0" cy="180.0" r="2.53" fill="rgb(149,114,156)" />
<circle cx="180.0" cy="180.0" r="2.35" fill="rgb(181,215,101)" />
<circle cx="180.0" cy="180.0" r="2.24" fill="rgb(232,247,223)" />
<circle cx="180.0" cy="180.0" r="2.21" fill="rgb(107,163,96)" />
<circle cx="180.0" cy="180.0" r="2.1" fill="rgb(52,43,123)" />
<circle cx="180.0" cy="180.0" r="1.93" fill="rgb(54,92,93)" />
<circle cx="180.0" cy="180.0" r="1.6" fill="rgb(226,74,85)" />
<circle cx="180.0" cy="180.0" r="1.58" fill="rgb(167,115,132)" />
<circle cx="180.0" cy="180.0" r="1.37" fill="rgb(3,158,171)" />
<circle cx="180.0" cy="180.0" r="1.29" fill="rgb(124,47,107)" />
<circle cx="180.0" cy="180.0" r="1.19" fill="rgb(17,243,240)" />
<circle cx="180.0" cy="180.0" r="1.11" fill="rgb(195,98,198)" />
<circle cx="180.0" cy="180.0" r="1.07" fill="rgb(236,31,121)" />
<circle cx="180.0" cy="180.0" r="1.01" fill="rgb(182,55,226)" />
<circle cx="180.0" cy="180.0" r="0.92" fill="rgb(111,254,134)" />
<circle cx="180.0" cy="180.0" r="0.92" fill="rgb(248,110,121)" />
<circle cx="180.0" cy="180.0" r="0.83" fill="rgb(176,146,199)" />
<circle cx="180.0" cy="180.0" r="0.75" fill="rgb(34,237,8)" />
<circle cx="180.0" cy="180.0" r="0.63" fill="rgb(248,52,198)" />
<circle cx="180.0" cy="180.0" r="0.62" fill="rgb(57,160,65)" />
<circle cx="180.0" cy="180.0" r="0.6" fill="rgb(58,70,47)" />
<circle cx="180.0" cy="180.0" r="0.6" fill="rgb(214,207,250)" />
<circle cx="180.0" cy="180.0" r="0.54" fill="rgb(219,173,166)" />
<circle cx="180.0" cy="180.0" r="0.49" fill="rgb(241,53,46)" />
<circle cx="180.0" cy="180.0" r="0.47" fill="rgb(71,164,212)" />
<circle cx="180.0" cy="180.0" r="0.43" fill="rgb(152,26,160)" />
<circle cx="180.0" cy="180.0" r="0.4" fill="rgb(89,245,46)" />
<circle cx="180.0" cy="180.0" r="0.39" fill="rgb(184,123,76)" />
<circle cx="180.0" cy="180.0" r="0.36" fill="rgb(120,26,138)" />
<circle cx="180.0" cy="180.0" r="0.35" fill="rgb(119,15,18)" />
<circle cx="180.0" cy="180.0" r="0.34" fill="rgb(20,205,3)" />
<circle cx="180.0" cy="180.0" r="0.34" fill="rgb(177,233,240)" />
<circle cx="180.0" cy="180.0" r="0.34" fill="rgb(35,48,29)" />
<circle cx="180.0" cy="180.0" r="0.32" fill="rgb(195,41,119)" />
<circle cx="180.0" cy="180.0" r="0.31" fill="rgb(200,211,139)" />
<circle cx="180.0" cy="180.0" r="0.31" fill="rgb(96,133,174)" />
<circle cx="180.0" cy="180.0" r="0.3" fill="rgb(199,89,143)" />
<circle cx="180.0" cy="180.0" r="0.29" fill="rgb(190,93,246)" />
<circle cx="180.0" cy="180.0" r="0.29" fill="rgb(126,2,92)" />
<circle cx="180.0" cy="180.0" r="0.28" fill="rgb(40,82,163)" />
<circle cx="180.0" cy="180.0" r="0.27" fill="rgb(155,126,101)" />
<circle cx="180.0" cy="180.0" r="0.25" fill="rgb(44,63,173)" />
<circle cx="180.0" cy="180.0" r="0.23" fill="rgb(27,248,142)" />
<circle cx="180.0" cy="180.0" r="0.23" fill="rgb(200,204,212)" />
<circle cx="180.0" cy="180.0" r="0.23" fill="rgb(80,240,176)" />
<circle cx="180.0" cy="180.0" r="0.23" fill="rgb(224,233,5)" />
<circle cx="180.0" cy="180.0" r="0.23" fill="rgb(229,236,4)" />
<circle cx="180.0" cy="180.0" r="0.22" fill="rgb(196,250,93)" />
<circle cx="180.0" cy="180.0" r="0.21" fill="rgb(47,224,150)" />
<circle cx="180.0" cy="180.0" r="0.21" fill="rgb(201,220,41)" />
<circle cx="180.0" cy="180.0" r="0.21" fill="rgb(9,205,78)" />
<circle cx="180.0" cy="180.0" r="0.21" fill="rgb(103,233,238)" />
<circle cx="180.0" cy="180.0" r="0.2" fill="rgb(237,176,105)" />
<circle cx="180.0" cy="180.0" r="0.2" fill="rgb(247,110,89)" />
<circle cx="180.0" cy="180.0" r="0.18" fill="rgb(208,243,151)" />
<circle cx="180.0" cy="180.0" r="0.17" fill="rgb(19,128,32)" />
<circle cx="180.0" cy="180.0" r="0.17" fill="rgb(28,201,249)" />
<circle cx="180.0" cy="180.0" r="0.16" fill="rgb(18,95,237)" />
<circle cx="180.0" cy="180.0" r="0.16" fill="rgb(157,200,66)" />
<circle cx="180.0" cy="180.0" r="0.16" fill="rgb(92,58,114)" />
<circle cx="180.0" cy="180.0" r="0.16" fill="rgb(130,42,71)" />
<circle cx="180.0" cy="180.0" r="0.15" fill="rgb(169,207,79)" />
<circle cx="180.0" cy="180.0" r="0.15" fill="rgb(207,243,146)" />
<circle cx="180.0" cy="180.0" r="0.14" fill="rgb(55,118,186)" />
<circle cx="180.0" cy="180.0" r="0.13" fill="rgb(206,241,168)" />
<circle cx="180.0" cy="180.0" r="0.13" fill="rgb(42,216,239)" />
<circle cx="180.0" cy="180.0" r="0.13" fill="rgb(43,102,140)" />
<circle cx="180.0" cy="180.0" r="0.13" fill="rgb(95,182,177)" />
<circle cx="180.0" cy="180.0" r="0.13" fill="rgb(181,89,121)" />
<circle cx="180.0" cy="180.0" r="0.12" fill="rgb(240,40,244)" />
<circle cx="180.0" cy="180.0" r="0.12" fill="rgb(17,84,127)" />
<circle cx="180.0" cy="180.0" r="0.12" fill="rgb(111,65,14)" />
<circle cx="180.0" cy="180.0" r="0.12" fill="rgb(255,73,167)" />
<circle cx="180.0" cy="180.0" r="0.12" fill="rgb(57,239,56)" />
<circle cx="180.0" cy="180.0" r="0.11" fill="rgb(79,156,41)" />
<circle cx="180.0" cy="180.0" r="0.11" fill="rgb(158,117,122)" />
<circle cx="180.0" cy="180.0" r="0.11" fill="rgb(202,22,2)" />
<circle cx="180.0" cy="180.0" r="0.11" fill="rgb(213,84,81)" />
<circle cx="180.0" cy="180.0" r="0.11" fill="rgb(191,36,111)" />
<circle cx="180.0" cy="180.0" r="0.11" fill="rgb(85,76,38)" />
<circle cx="180.0" cy="180.0" r="0.11" fill="rgb(165,128,241)" />
<circle cx="180.0" cy="180.0" r="0.1" fill="rgb(27,25,72)" />
<circle cx="180.0" cy="180.0" r="0.1" fill="rgb(189,212,214)" />
<circle cx="180.0" cy="180.0" r="0.09" fill="rgb(142,150,194)" />
<circle cx="180.0" cy="180.0" r="0.09" fill="rgb(133,69,254)" />
<circle cx="180.0" cy="180.0" r="0.09" fill="rgb(50,179,168)" />
<circle cx="180.0" cy="180.0" r="0.08" fill="rgb(252,90,200)" />
<circle cx="180.0" cy="180.0" r="0.08" fill="rgb(126,37,19)" />
<circle cx="180.0" cy="180.0" r="0.08" fill="rgb(6,52,168)" />
<circle cx="180.0" cy="180.0" r="0.08" fill="rgb(87,78,201)" />
<circle cx="180.0" cy="180.0" r="0.08" fill="rgb(243,215,159)" />
<circle cx="180.0" cy="180.0" r="0.08" fill="rgb(240,196,172)" />
<circle cx="180.0" cy="180.0" r="0.07" fill="rgb(194,58,202)" />
<circle cx="180.0" cy="180.0" r="0.07" fill="rgb(102,128,52)" />
<circle cx="180.0" cy="180.0" r="0.07" fill="rgb(226,34,102)" />
<circle cx="180.0" cy="180.0" r="0.07" fill="rgb(168,50,125)" />
<circle cx="180.0" cy="180.0" r="0.07" fill="rgb(132,153,216)" />
<circle cx="180.0" cy="180.0" r="0.06" fill="rgb(181,30,3)" />
<circle cx="180.0" cy="180.0" r="0.06" fill="rgb(210,45,98)" />
<circle cx="180.0" cy="180.0" r="0.06" fill="rgb(167,183,60)" />
<circle cx="180.0" cy="180.0" r="0.06" fill="rgb(21,32,89)" />
<circle cx="180.0" cy="180.0" r="0.05" fill="rgb(189,120,126)" />
<circle cx="180.0" cy="180.0" r="0.05" fill="rgb(161,248,141)" />
<circle cx="180.0" cy="180.0" r="0.05" fill="rgb(231,248,140)" />
<circle cx="180.0" cy="180.0" r="0.05" fill="rgb(236,9,62)" />
<circle cx="180.0" cy="180.0" r="0.05" fill="rgb(248,61,218)" />
<circle cx="180.0" cy="180.0" r="0.05" fill="rgb(71,84,143)" />
<circle cx="180.0" cy="180.0" r="0.05" fill="rgb(245,208,10)" />
<circle cx="180.0" cy="180.0" r="0.05" fill="rgb(180,215,0)" />
<circle cx="180.0" cy="180.0" r="0.04" fill="rgb(83,149,167)" />
<circle cx="180.0" cy="180.0" r="0.04" fill="rgb(147,17,58)" />
<circle cx="180.0" cy="180.0" r="0.04" fill="rgb(206,120,210)" />
<circle cx="180.0" cy="180.0" r="0.04" fill="rgb(214,229,109)" />
<circle cx="180.0" cy="180.0" r="0.04" fill="rgb(37,249,117)" />
<circle cx="180.0" cy="180.0" r="0.04" fill="rgb(137,72,172)" />
<circle cx="180.0" cy="180.0" r="0.03" fill="rgb(191,20,161)" />
<circle cx="180.0" cy="180.0" r="0.03" fill="rgb(127,223,40)" />
<circle cx="180.0" cy="180.0" r="0.03" fill="rgb(67,56,208)" />
<circle cx="180.0" cy="180.0" r="0.03" fill="rgb(183,61,64)" />
<circle cx="180.0" cy="180.0" r="0.02" fill="rgb(129,235,194)" />
<circle cx="180.0" cy="180.0" r="0.02" fill="rgb(242,48,252)" />
<circle cx="180.0" cy="180.0" r="0.01" fill="rgb(19,167,144)" />
</svg>
